<svg xmlns="http://www.w3.org/2000/svg" width="78.7" height="63.8" viewBox="0 0 78.7 63.8"><path d="M72.4 39.6c-2.8-2.4-6.6-3.6-11.5-3.6h-5.7c.5-4.1 1.3-7.4 2.4-9.9 1.1-2.6 2.9-5 5.1-7.5 2.4-2.5 4.7-4.5 7-6.1C72 11 75 9.1 78.7 7l-4.3-7c-2.4 1.5-5.5 3.4-9.1 5.8-3.6 2.4-7 5.2-10.3 8.6-3.2 3.3-5.8 7.1-8 11.3-2.2 4.2-3.3 8.9-3.3 14 0 7.2 1.5 13.1 4.4 17.5 2.9 4.4 7.8 6.7 14.5 6.7 4.3 0 7.7-1.4 10.2-4.3s3.7-6 3.7-9.3c0-4.7-1.4-8.3-4.1-10.7zM19 18.6c2.4-2.5 4.7-4.5 7-6.1 2.3-1.5 5.3-3.4 9-5.5l-4.3-7c-2.4 1.5-5.5 3.4-9.1 5.8-3.6 2.3-7 5.2-10.3 8.6-3.1 3.3-5.8 7.1-8 11.3C1.1 29.9 0 34.5 0 39.6c0 7.2 1.5 13.1 4.4 17.5 2.9 4.4 7.8 6.7 14.5 6.7 4.3 0 7.7-1.4 10.2-4.3s3.7-6 3.7-9.3c0-4.6-1.4-8.2-4.2-10.6C25.9 37.2 22 36 17.1 36h-5.7c.5-4.1 1.3-7.4 2.5-10 1.2-2.6 2.9-5 5.1-7.4z" fill="#EFEFEF"/></svg>