<?xml version="1.0" encoding="utf-8"?>
<!-- Generator: Adobe Illustrator 17.1.0, SVG Export Plug-In . SVG Version: 6.00 Build 0)  -->
<!DOCTYPE svg PUBLIC "-//W3C//DTD SVG 1.1//EN" "http://www.w3.org/Graphics/SVG/1.1/DTD/svg11.dtd">
<svg version="1.1" id="Layer_1" xmlns="http://www.w3.org/2000/svg" xmlns:xlink="http://www.w3.org/1999/xlink" x="0px" y="0px"
	 width="26.1px" height="33.8px" viewBox="0 0 26.1 33.8" enable-background="new 0 0 26.1 33.8" xml:space="preserve">
<g>
	<path fill="#D32857" d="M13,0L0,1.5v24.5l13,7.8v0l13-7.9V1.6L13,0z M24,24.7l-11,6.6V24l-6.4-2.9v0l6.4-2.8v0h0v0l6.4,2.8v0l0,0
		v-1.2L13.1,17l0,0l0,0v0h0v0l-6.4,2.8v-1.2l0,0l5.8-2.6l-1.4-0.6l-4.5,2v-1.2l3.1-1.4l-1.4-0.6l-1.7,0.7v-1.2L7,13.6l-3.7-1.7
		L13,7.6V2.1l11,1.3V24.7z"/>
	<polygon fill="#D32857" points="19.4,17.4 15,15.4 13.6,16 19.4,18.6 	"/>
	<polygon fill="#D32857" points="19.4,14.9 17.7,14.2 16.3,14.8 19.4,16.2 	"/>
</g>
</svg>
