<?xml version="1.0" encoding="utf-8"?>
<!-- Generator: Adobe Illustrator 17.1.0, SVG Export Plug-In . SVG Version: 6.00 Build 0)  -->
<!DOCTYPE svg PUBLIC "-//W3C//DTD SVG 1.1//EN" "http://www.w3.org/Graphics/SVG/1.1/DTD/svg11.dtd">
<svg version="1.1" id="Layer_1" xmlns="http://www.w3.org/2000/svg" xmlns:xlink="http://www.w3.org/1999/xlink" x="0px" y="0px"
	 width="78.7px" height="63.8px" viewBox="0 0 78.7 63.8" enable-background="new 0 0 78.7 63.8" xml:space="preserve">
<g>
	<path fill="#EFEFEF" d="M72.4,39.6c-2.8-2.4-6.6-3.6-11.5-3.6h-5.7c0.5-4.1,1.3-7.4,2.4-9.9c1.1-2.6,2.9-5,5.1-7.5
		c2.4-2.5,4.7-4.5,7-6.1c2.3-1.5,5.3-3.4,9-5.5L74.4,0c-2.4,1.5-5.5,3.4-9.1,5.8c-3.6,2.4-7,5.2-10.3,8.6c-3.2,3.3-5.8,7.1-8,11.3
		c-2.2,4.2-3.3,8.9-3.3,14c0,7.2,1.5,13.1,4.4,17.5c2.9,4.4,7.8,6.7,14.5,6.7c4.3,0,7.7-1.4,10.2-4.3s3.7-6,3.7-9.3
		C76.5,45.6,75.1,42,72.4,39.6z"/>
	<path fill="#EFEFEF" d="M19,18.6c2.4-2.5,4.7-4.5,7-6.1c2.3-1.5,5.3-3.4,9-5.5L30.7,0c-2.4,1.5-5.5,3.4-9.1,5.8
		C18,8.1,14.6,11,11.3,14.4c-3.1,3.3-5.8,7.1-8,11.3C1.1,29.9,0,34.5,0,39.6c0,7.2,1.5,13.1,4.4,17.5c2.9,4.4,7.8,6.7,14.5,6.7
		c4.3,0,7.7-1.4,10.2-4.3s3.7-6,3.7-9.3c0-4.6-1.4-8.2-4.2-10.6C25.9,37.2,22,36,17.1,36h-5.7c0.5-4.1,1.3-7.4,2.5-10
		C15.1,23.4,16.8,21,19,18.6z"/>
</g>
</svg>
